<?xml version="1.0" encoding="utf-8"?>
<!-- Generator: Adobe Illustrator 22.1.0, SVG Export Plug-In . SVG Version: 6.00 Build 0)  -->
<svg version="1.1" id="图层_1" xmlns="http://www.w3.org/2000/svg" xmlns:xlink="http://www.w3.org/1999/xlink" x="0px" y="0px"
	 viewBox="0 0 1134 1440" style="enable-background:new 0 0 1134 1440;" xml:space="preserve">
<style type="text/css">
	.st0{fill:#111111;}
	.st1{font-family:'Tensentype-JiaLiDaYuanJ';}
	.st2{font-size:60px;}
	.st3{font-size:29.4198px;}
	.st4{fill:#ffffff;}
	.st5{fill:#a8ffbe;}
	.st6{fill:#FFE57E;}
	.st7{fill:#FFB57E;}
	.st8{fill:#ff7700;}
	.st9{fill:none;stroke:#000000;stroke-width:4;stroke-linecap:round;stroke-linejoin:round;stroke-miterlimit:10;}
	.st10{font-size:30px;}
	.st11{fill:#FFFFFF;stroke:#231F20;stroke-width:4;stroke-linecap:round;stroke-linejoin:round;stroke-miterlimit:10;}
	.st12{font-size:24px;}
</style>
<text transform="matrix(1 0 0 1 862.7026 93.922)" class="st0 st1 st2">清华制霸</text>
<text id="小五爷园" transform="matrix(1 0 0 1 44.4999 1389.489)" class="st0 st1 st3">清华小五爷园</text>
<text id="分数" transform="matrix(1 0 0 1 44.4999 1328.547)" class="st0 st1 st2">分数</text>
<g id="等级">
	<rect x="938.1" y="1313.6" class="st4" width="176.2" height="50"/>
	<rect x="938.1" y="1263.6" class="st5" width="176.2" height="50"/>
	<rect x="938.1" y="1213.6" class="st6" width="176.2" height="50"/>
	<rect x="938.1" y="1163.6" class="st7" width="176.2" height="50"/>
	<rect x="938.1" y="1113.6" class="st8" width="176.2" height="50"/>
	<rect x="938.1" y="1113.6" class="st9" width="176.2" height="250"/>
	<text transform="matrix(1 0 0 1 953.6976 1148.1879)" class="st1 st10">4 线下去过</text>
	<text transform="matrix(1 0 0 1 953.7269 1198.5708)" class="st1 st10">3 线上观看</text>
	<text transform="matrix(1 0 0 1 953.7269 1248.5708)" class="st1 st10">2 看过返图</text>
	<text transform="matrix(1 0 0 1 953.7269 1298.5708)" class="st1 st10">1 听说过</text>
	<text transform="matrix(1 0 0 1 953.7269 1348.5708)" class="st1 st10">0 没印象</text>
</g>
<g id="地区_1_">
	<polygon id="北京演唱会" class="st11" points="852.4,305 852.4,377 984.4,377 984.4,327.6 918.4,327.6 918.4,305 	"/>
	<rect id="上海演唱会" x="891.1" y="502" class="st11" width="84" height="63.6"/>
	<rect id="广州演唱会" x="842.1" y="766" class="st11" width="84" height="63.6"/>
</g>
<g id="地名_1_">
	<text transform="matrix(1 0 0 1 896.9563 527.9428)" class="st0 st1 st12">上海</text>
	<text transform="matrix(1 0 0 1 896.9558 553.5762)" class="st0 st1 st12">演唱会</text>
	<text transform="matrix(1 0 0 1 847.9569 792.0681)" class="st0 st1 st12">广州</text>
	<text transform="matrix(1 0 0 1 847.9565 817.493)" class="st0 st1 st12">演唱会</text>
	<text transform="matrix(1 0 0 1 859.9568 333.7346)" class="st0 st1 st12">北京</text>
	<text transform="matrix(1 0 0 1 859.9568 362.5761)" class="st0 st1 st12">演唱会</text>
</g>
</svg>
