<?xml version="1.0" standalone="no"?><!DOCTYPE svg PUBLIC "-//W3C//DTD SVG 1.1//EN" "http://www.w3.org/Graphics/SVG/1.1/DTD/svg11.dtd"><svg t="1666510344058" class="icon" viewBox="0 0 1024 1024" version="1.1" xmlns="http://www.w3.org/2000/svg" p-id="4306" xmlns:xlink="http://www.w3.org/1999/xlink" width="200" height="200"><path d="M524.8 357.12a3.84 3.84 0 0 1 0 6.08 174.08 174.08 0 0 0-89.6 81.28c0 2.24-1.92 1.92-3.52 1.92a176.96 176.96 0 0 0-170.24 128 4.8 4.8 0 0 1-8.64 0 177.28 177.28 0 0 1 111.36-263.04 177.6 177.6 0 0 1 160.64 45.76z" fill="#FF8025" p-id="4307"></path><path d="M864 636.48a192 192 0 0 0 2.56-32 220.48 220.48 0 0 0-411.84-108.48 120.64 120.64 0 0 0-160 116.16 129.6 129.6 0 0 0 2.24 22.4 124.16 124.16 0 0 0-79.68 116.16 124.8 124.8 0 0 0 124.48 124.8h470.4a124.8 124.8 0 0 0 124.8-124.8A124.8 124.8 0 0 0 864 636.48z" fill="#FF8025" p-id="4308"></path><path d="M45.76 462.4m29.12 0l69.12 0q29.12 0 29.12 29.12l0-0.32q0 29.12-29.12 29.12l-69.12 0q-29.12 0-29.12-29.12l0 0.32q0-29.12 29.12-29.12Z" fill="#FF8025" p-id="4309"></path><path d="M99.674484 286.148273m24.543161 15.671875l58.256293 37.199175q24.543161 15.671875 8.871287 40.215035l0.172218-0.269705q-15.671875 24.543161-40.215036 8.871286l-58.256293-37.199175q-24.543161-15.671875-8.871286-40.215035l-0.172219 0.269705q15.671875-24.543161 40.215036-8.871286Z" fill="#FF8025" p-id="4310"></path><path d="M239.286403 166.406364m12.255953 26.415262l29.091052 62.69996q12.255953 26.415261-14.159308 38.671214l0.290277-0.134681q-26.415261 12.255953-38.671214-14.159308l-29.091052-62.699961q-12.255953-26.415261 14.159308-38.671214l-0.290277 0.134681q26.415261-12.255953 38.671214 14.159309Z" fill="#FF8025" p-id="4311"></path><path d="M421.470343 140.958448m-3.886568 28.85947l-9.225259 68.501598q-3.886567 28.85947-32.746037 24.972902l0.317137 0.04271q-28.85947-3.886567-24.972902-32.746037l9.225259-68.501599q3.886567-28.85947 32.746037-24.972902l-0.317137-0.04271q28.85947 3.886567 24.972902 32.746038Z" fill="#FF8025" p-id="4312"></path><path d="M602.967175 201.048496m-18.80349 22.235178l-44.632461 52.778006q-18.803491 22.235178-41.038669 3.431687l0.244343 0.206632q-22.235178-18.803491-3.431688-41.038669l44.632461-52.778005q18.803491-22.235178 41.038669-3.431687l-0.244343-0.206632q22.235178 18.803491 3.431688 41.038668Z" fill="#FF8025" p-id="4313"></path></svg>